<svg width="32" height="39" viewBox="0 0 32 39" fill="none" xmlns="http://www.w3.org/2000/svg">
<path d="M11.1616 1.33337L18.6199 6.96048L20.7476 11.2784L25.0479 13.0469L30.2216 25.1969L26.6157 36.3592L23.5697 38.0359L25.7198 26.0467L20.3445 17.7783L15.6859 15.849L15.3275 8.22371L11.1616 1.33337Z" fill="#21B3D3"/>
<path fill-rule="evenodd" clip-rule="evenodd" d="M10.5548 0.659311C10.8697 0.360981 11.3468 0.333696 11.6921 0.59426L19.1504 6.22136C19.2635 6.30669 19.3554 6.41811 19.4188 6.54662L21.3942 10.5556L25.3812 12.1953C25.5992 12.2849 25.7741 12.4589 25.8681 12.6797L31.0419 24.8297C31.1302 25.037 31.1407 25.2706 31.0713 25.4854L27.4653 36.6477C27.3933 36.8706 27.2408 37.0566 27.0391 37.1676L23.9931 38.8443C23.6901 39.0111 23.3207 38.985 23.0428 38.7772C22.7649 38.5695 22.6277 38.2167 22.6899 37.8699L24.7745 26.2463L19.7535 18.523L15.3511 16.6998C15.0273 16.5657 14.8092 16.2508 14.7924 15.8931L14.4452 8.5052L10.4014 1.81684C10.1755 1.44315 10.2398 0.957642 10.5548 0.659311ZM14.3641 4.88851L16.0882 7.74017C16.1683 7.87263 16.2142 8.02383 16.2215 8.1795L16.5523 15.2181L20.6798 16.9275C20.8467 16.9966 20.9894 17.1157 21.0892 17.2693L26.4646 25.5377C26.5935 25.7361 26.6421 25.9781 26.6001 26.2126L24.7866 36.3248L25.8787 35.7236L29.2647 25.2419L24.3749 13.7586L20.4148 12.13C20.2129 12.047 20.0474 11.8913 19.9493 11.6922L17.9179 7.56974L14.3641 4.88851Z" fill="#21B3D3"/>
<path d="M23.5698 38.0359L25.7199 26.0467L20.3446 17.7783L15.686 15.849L8.4965 24.5078L3.18837 24.1633L1.77734 29.2851L5.3161 38.0359H23.5698Z" fill="#3FDCFF"/>
<path fill-rule="evenodd" clip-rule="evenodd" d="M15.005 15.2542C15.2547 14.9534 15.6641 14.8503 16.0213 14.9982L20.6799 16.9275C20.8468 16.9966 20.9895 17.1157 21.0893 17.2693L26.4647 25.5377C26.5936 25.7361 26.6422 25.9782 26.6002 26.2127L24.4501 38.2018C24.372 38.6373 24.0018 38.9534 23.5701 38.9534H5.31634C4.95457 38.9534 4.6284 38.73 4.48982 38.3874L0.951065 29.6366C0.873974 29.446 0.861802 29.2343 0.916515 29.0357L2.32754 23.9139C2.44215 23.4979 2.82439 23.2203 3.24512 23.2476L8.106 23.5631L15.005 15.2542ZM15.9493 16.9475L9.17801 25.1027C8.99515 25.3229 8.72172 25.4419 8.44022 25.4236L3.85322 25.1259L2.72312 29.228L5.91394 37.1183H22.8248L24.7746 26.2463L19.7536 18.523L15.9493 16.9475Z" fill="#3FDCFF"/>
<path d="M11.1619 1.33337L9.41492 2.5966L6.92883 10.3597L2.3374 16.6758L3.1885 24.1633L8.49663 24.5079L15.6861 15.849L15.3278 8.22371L11.1619 1.33337Z" fill="#67E3FF"/>
<path fill-rule="evenodd" clip-rule="evenodd" d="M11.3401 0.434216C11.5817 0.484638 11.7922 0.635007 11.9221 0.849839L16.088 7.74017C16.1681 7.87263 16.2139 8.02383 16.2213 8.1795L16.5796 15.8048C16.5906 16.0378 16.5146 16.2662 16.3672 16.4438L9.17765 25.1027C8.99479 25.3229 8.72137 25.4418 8.43987 25.4236L3.13173 25.079C2.69996 25.051 2.34959 24.7102 2.2995 24.2695L1.4484 16.782C1.42196 16.5494 1.48327 16.3152 1.61978 16.1274L6.124 9.93123L8.56457 2.31028C8.62457 2.1229 8.74186 1.96034 8.89904 1.84668L10.646 0.583453C10.8475 0.437788 11.0986 0.383795 11.3401 0.434216ZM10.1724 3.17142L7.77868 10.646C7.74853 10.7401 7.70371 10.8286 7.64596 10.9081L3.26708 16.9318L3.99048 23.296L8.10565 23.5631L14.7751 15.5305L14.445 8.5052L10.9014 2.64424L10.1724 3.17142Z" fill="#67E3FF"/>
</svg>
